<?xml version="1.0" ?><!DOCTYPE svg  PUBLIC '-//W3C//DTD SVG 1.1//EN'  'http://www.w3.org/Graphics/SVG/1.1/DTD/svg11.dtd'><svg enable-background="new 0 0 512 512" id="Layer_1" version="1.1" viewBox="0 0 512 512" xml:space="preserve" xmlns="http://www.w3.org/2000/svg" xmlns:xlink="http://www.w3.org/1999/xlink"><circle cx="256" cy="256" fill="#4CB234" r="250"/><g><path d="M412.7,249.7c-1.2-9.2-1.4-18.7-3.9-27.6c-7.4-25.9-22.4-47.1-43.6-63.5c-42.5-32.8-90.9-42.6-143.2-33.9   c-33.2,5.5-63,18.9-87.2,42.8c-36.5,36-46.9,78-28.5,122.6c18,43.6,53.8,67.2,97.5,80.3c8.9,2.7,18.2,4,27.2,5.9   c10.8,2.3,13.5,5.3,13,16c-0.3,6-2,11.8-2.3,17.8c-0.2,3.5-0.1,8.7,2,10.3c2.1,1.6,7.4,0.8,10.4-0.6c8-3.7,15.7-8,23.2-12.7   c36.9-23,72.6-47.6,101.9-80.1C399.1,305,411.9,280.1,412.7,249.7z"/><path d="M412.7,249.7c-0.7,30.3-13.6,55.3-33.4,77.1C350,359.4,314.3,384,277.4,407c-7.5,4.7-15.2,9-23.2,12.7   c-3.1,1.4-8.3,2.3-10.4,0.6c-2.1-1.6-2.2-6.8-2-10.3c0.3-6,2-11.8,2.3-17.8c0.5-10.8-2.2-13.8-13-16c-9.1-1.9-18.4-3.2-27.2-5.9   c-43.7-13.1-79.5-36.7-97.5-80.3c-18.5-44.6-8.1-86.6,28.5-122.6c24.2-23.8,54-37.3,87.2-42.8c52.3-8.7,100.7,1.1,143.2,33.9   c21.2,16.4,36.3,37.6,43.6,63.5C411.3,231,411.4,240.5,412.7,249.7z M251.6,244c0.5-0.1,1.1-0.2,1.6-0.3   c9.7,12.8,19.5,25.5,29,38.4c3,4.1,7,7.1,11.5,4.4c2.7-1.7,5-6.4,5-9.8c0.5-18.2,0.2-36.5,0.2-54.8c0-7.5-2.7-11.1-8.3-10.8   c-6.6,0.4-8,4.8-7.9,10.6c0.2,11.1,0.1,22.3,0.1,35.6c-11.3-15-21.2-28.2-31-41.4c-2.9-3.9-6.8-6.7-10.9-4   c-2.8,1.8-5.2,6.3-5.3,9.7c-0.5,18.5-0.2,37-0.3,55.5c0,5.8,1.7,10.2,8.3,10.2c6.7,0,8.1-4.6,8-10.3   C251.5,265.9,251.6,254.9,251.6,244z M325.4,227.5c7.6,0,14.6,0,21.5,0c5.6,0,9.7-2.2,9.7-8.1c0.1-5.8-3.8-8.4-9.4-8.4   c-9.6,0-19.2,0-28.8,0c-6.5,0-9.6,3.3-9.6,9.9c0.1,19,0.1,38,0,56.9c0,6.6,3.3,9.6,9.8,9.6c9.4-0.1,18.7-0.1,28.1,0   c5.5,0,9.5-1.8,10-7.9c0.4-5.2-3.5-8.4-10.1-8.5c-6.9-0.1-13.8,0-21,0c0-5,0-9.2,0-14.2c7,0,13.7-0.1,20.4,0   c5.7,0.1,10.2-1.2,10.8-7.7c0.5-5.3-3.7-8.6-10.8-8.6c-6.9-0.1-13.7,0-20.5,0C325.4,235.7,325.4,232.2,325.4,227.5z M169.7,271   c0-17.2,0-33.7,0-50.2c0-5.6-2-9.6-8.1-9.7c-6-0.1-8.3,3.9-8.3,9.5c0,18.9-0.1,37.9,0,56.8c0,7.2,2.8,9.7,10.2,9.8   c9.1,0.1,18.2,0,27.3,0c5.8,0,10.1-1.6,9.9-8.4c-0.2-6.2-4.2-8-9.8-7.9C184.1,271.1,177.2,271,169.7,271z M224.8,248.6   c0-9.1,0-18.3,0-27.4c0-5.9-2.1-10.2-8.5-10.1c-5.9,0.1-8.1,4.2-8.1,9.8c0,18.8,0,37.5,0,56.3c0,5.8,2,10.2,8.5,10   c6.6-0.1,8.1-4.8,8.1-10.4C224.7,267.4,224.8,258,224.8,248.6z" fill="#FFFFFF"/><path d="M251.6,244c0,11-0.1,21.9,0,32.9c0.1,5.7-1.3,10.3-8,10.3c-6.6,0-8.3-4.4-8.3-10.2   c0.1-18.5-0.2-37,0.3-55.5c0.1-3.4,2.5-7.9,5.3-9.7c4.2-2.7,8.1,0.2,10.9,4c9.8,13.2,19.7,26.4,31,41.4c0-13.3,0.1-24.5-0.1-35.6   c-0.1-5.7,1.2-10.2,7.9-10.6c5.5-0.3,8.3,3.3,8.3,10.8c0,18.3,0.3,36.5-0.2,54.8c-0.1,3.4-2.3,8.1-5,9.8c-4.4,2.7-8.4-0.3-11.5-4.4   c-9.6-12.9-19.3-25.6-29-38.4C252.6,243.8,252.1,243.9,251.6,244z" fill="#22AC38"/><path d="M325.4,227.5c0,4.7,0,8.3,0,13c6.8,0,13.7,0,20.5,0c7,0.1,11.2,3.3,10.8,8.6c-0.6,6.6-5.1,7.9-10.8,7.7   c-6.7-0.2-13.3,0-20.4,0c0,5,0,9.2,0,14.2c7.2,0,14.1-0.1,21,0c6.6,0.1,10.5,3.3,10.1,8.5c-0.5,6-4.5,7.9-10,7.9   c-9.4-0.1-18.7-0.1-28.1,0c-6.5,0-9.8-2.9-9.8-9.6c0-19,0.1-38,0-56.9c0-6.6,3.1-9.8,9.6-9.9c9.6-0.1,19.2,0,28.8,0   c5.7,0,9.5,2.6,9.4,8.4c-0.1,5.9-4.2,8.2-9.7,8.1C340,227.5,333,227.5,325.4,227.5z" fill="#22AC38"/><path d="M169.7,271c7.6,0,14.4,0.1,21.3,0c5.5-0.1,9.6,1.7,9.8,7.9c0.2,6.7-4.1,8.4-9.9,8.4   c-9.1-0.1-18.2,0.1-27.3,0c-7.4-0.1-10.2-2.6-10.2-9.8c-0.1-18.9-0.1-37.9,0-56.8c0-5.5,2.3-9.5,8.3-9.5c6,0.1,8.1,4.1,8.1,9.7   C169.6,237.3,169.7,253.8,169.7,271z" fill="#22AC38"/><path d="M224.8,248.6c0,9.4,0,18.8,0,28.1c0,5.7-1.5,10.3-8.1,10.4c-6.5,0.1-8.5-4.2-8.5-10c0-18.8,0-37.5,0-56.3   c0-5.6,2.2-9.7,8.1-9.8c6.4-0.1,8.5,4.2,8.5,10.1C224.7,230.3,224.8,239.5,224.8,248.6z" fill="#22AC38"/></g></svg>